<?xml version="1.0" encoding="UTF-8"?><svg xmlns="http://www.w3.org/2000/svg" viewBox="0 0 90.03 91.32"><defs><style>.d{fill:#f25252;}</style></defs><g id="a"/><g id="b"><g id="c"><path class="d" d="M42.15,86.81h0c-4.53-3.94-10.71-5.41-16.53-3.91h0c-14.65,3.77-27.26-10.9-21.34-24.82h0c2.35-5.53,1.83-11.86-1.39-16.93h0C-5.23,28.39,4.82,11.86,19.89,13.19h0c5.98,.53,11.84-1.92,15.67-6.55h0c9.64-11.66,28.46-7.21,31.85,7.53h0c1.35,5.85,5.49,10.67,11.07,12.88h0c14.07,5.56,15.65,24.84,2.68,32.62h0c-5.15,3.09-8.45,8.52-8.83,14.51h0c-.94,15.1-18.79,22.56-30.2,12.63Z"/></g></g></svg>